# xmcd CD database file
#
# Track frame offsets:
#	150
#	17877
#	29452
#	46864
#	62265
#	77097
#	89897
#	106492
#	125872
#	138040
#	152090
#	166845
#	181412
#	196807
#	214595
#	230267
#	244995
#	258442
#	274297
#	291177
#	312800
#	313472
#	314197
#	314960
#	315795
#	316852
#	317997
#	318805
#	319637
#	320435
#	321315
#	322462
#	323287
#	324197
#	325210
#	326022
#	326872
#	328025
#	328727
#	329615
#	330435
#
# Disc length: 4414 seconds
#
# Revision: 0
# Processed by: cddbd v1.5.2PL0 Copyright (c) Steve Scherf et al.
# Submitted via: CDex 1.70beta2
#
DISCID=6d113c29
DTITLE=Jones Country - Jones Country Recurrent CHC-1169
DYEAR=0000
DGENRE=Country
TTITLE0=Shania Twain/(If You're Not In It For Love) I'm Outta Here
TTITLE1=David Lee Murphy/Out With A Bang
TTITLE2=Joe Diffie/Bigger Than The Beatles
TTITLE3=Linda Davis/Some Things Are Meant To Be
TTITLE4=Faith Hill/Let's Go To Vegas [LP version]
TTITLE5=Daryle Singletary/Too Much Fun [LP version]
TTITLE6=Ricochet/What Do I Know
TTITLE7=Garth Brooks/Beaches Of Cheyenne
TTITLE8=Neal McCoy/You Gotta Love That
TTITLE9=Lorrie Morgan/Standing Tall
TTITLE10=Lari White/Ready, Willing and Able
TTITLE11=George Strait/I Know She Still Loves Me
TTITLE12=Tracy Lawrence/If You Loved Me
TTITLE13=Diamond Rio/Walkin' Away
TTITLE14=Tracy Byrd/Heaven In My Woman's Eyes
TTITLE15=Mark Chesnutt/It Wouldn't Hurt To Have Wings [remix]
TTITLE16=Lonestar/No News
TTITLE17=Patty Loveless/You Can Feel Bad
TTITLE18=Clay Walker/Hypnotize The Moon
TTITLE19=Wynonna/To Be Loved By You
TTITLE20=Production Track 21
TTITLE21=Production Track 22
TTITLE22=Production Track 23
TTITLE23=Production Track 24
TTITLE24=Production Track 25
TTITLE25=Production Track 26
TTITLE26=Production Track 27
TTITLE27=Production Track 28
TTITLE28=Production Track 29
TTITLE29=Production Track 30
TTITLE30=Production Track 31
TTITLE31=Production Track 32
TTITLE32=Production Track 33
TTITLE33=Production Track 34
TTITLE34=Production Track #5
TTITLE35=Production Track 36
TTITLE36=Production Track 37
TTITLE37=Production Track 38
TTITLE38=Production Track 39
TTITLE39=Production Track 40
TTITLE40=Production Track 41
EXTD=YEAR: 0000
EXTT0=
EXTT1=
EXTT2=
EXTT3=
EXTT4=
EXTT5=
EXTT6=
EXTT7=
EXTT8=
EXTT9=
EXTT10=
EXTT11=
EXTT12=
EXTT13=
EXTT14=
EXTT15=
EXTT16=
EXTT17=
EXTT18=
EXTT19=
EXTT20=
EXTT21=
EXTT22=
EXTT23=
EXTT24=
EXTT25=
EXTT26=
EXTT27=
EXTT28=
EXTT29=
EXTT30=
EXTT31=
EXTT32=
EXTT33=
EXTT34=
EXTT35=
EXTT36=
EXTT37=
EXTT38=
EXTT39=
EXTT40=
PLAYORDER=
